<svg xmlns="http://www.w3.org/2000/svg" width="36" height="36"><g transform="translate(668 -1194.362)"><rect width="36" height="36" x="-668" y="1194.362" fill="#2b4255" rx="6" ry="6"/><g transform="translate(-666 174.498)"><path d="M1 1030.362v15c0 1.108.892 2 2 2h24c1.108 0 2-.892 2-2v-15H1z" opacity=".15"/><path fill="#f05542" d="M2 1030.362v15c0 1.108.892 2 2 2h24c1.108 0 2-.892 2-2v-15H2z"/><rect width="6" height="3.5" x="12" y="1028.364" fill="none" stroke="#000" stroke-dashoffset=".5" stroke-linecap="round" style="isolation:auto;mix-blend-mode:normal" stroke-linejoin="round" color="#000" opacity=".15" overflow="visible" rx="1" ry="1"/><rect width="6" height="3.5" x="13" y="1028.364" fill="none" stroke="#f05542" stroke-dashoffset=".5" stroke-linecap="round" style="isolation:auto;mix-blend-mode:normal" stroke-linejoin="round" color="#000" overflow="visible" rx="1" ry="1"/><path style="isolation:auto;mix-blend-mode:normal" d="M30 1031.364v4.34c0 1.825-1.561 3.294-3.5 3.294h-21c-1.939 0-3.5-1.47-3.5-3.294v-4.34" color="#000" opacity=".15" overflow="visible"/><path style="isolation:auto;mix-blend-mode:normal" fill="#f17f53" d="M2 1030.364v4.34c0 1.825 1.561 3.293 3.5 3.293h21c1.939 0 3.5-1.468 3.5-3.293v-4.34z" color="#000" overflow="visible"/><rect width="3" height="2" x="-16.5" y="-1039.362" fill-opacity=".976" color="#000" opacity=".15" style="isolation:auto;mix-blend-mode:normal" overflow="visible" rx="0" ry="0" transform="scale(-1)"/><rect width="3" height="2" x="-17.5" y="-1039.362" fill="#f8b74e" fill-opacity=".976" color="#000" overflow="visible" rx="0" ry="0" transform="scale(-1)" style="isolation:auto;mix-blend-mode:normal"/></g></g></svg>